<svg id="visual" viewBox="0 0 900 600" width="900" height="600" xmlns="http://www.w3.org/2000/svg" xmlns:xlink="http://www.w3.org/1999/xlink" version="1.1"><rect x="0" y="0" width="900" height="600" fill="#001220"></rect><path d="M0 325L21.5 326.8C43 328.7 86 332.3 128.8 345.2C171.7 358 214.3 380 257.2 378.7C300 377.3 343 352.7 385.8 337.7C428.7 322.7 471.3 317.3 514.2 322.3C557 327.3 600 342.7 642.8 345.3C685.7 348 728.3 338 771.2 331.5C814 325 857 322 878.5 320.5L900 319L900 601L878.5 601C857 601 814 601 771.2 601C728.3 601 685.7 601 642.8 601C600 601 557 601 514.2 601C471.3 601 428.7 601 385.8 601C343 601 300 601 257.2 601C214.3 601 171.7 601 128.8 601C86 601 43 601 21.5 601L0 601Z" fill="#ffc145"></path><path d="M0 403L21.5 404.7C43 406.3 86 409.7 128.8 407.2C171.7 404.7 214.3 396.3 257.2 400.2C300 404 343 420 385.8 430.2C428.7 440.3 471.3 444.7 514.2 436.2C557 427.7 600 406.3 642.8 405.3C685.7 404.3 728.3 423.7 771.2 435.2C814 446.7 857 450.3 878.5 452.2L900 454L900 601L878.5 601C857 601 814 601 771.2 601C728.3 601 685.7 601 642.8 601C600 601 557 601 514.2 601C471.3 601 428.7 601 385.8 601C343 601 300 601 257.2 601C214.3 601 171.7 601 128.8 601C86 601 43 601 21.5 601L0 601Z" fill="#ff9843"></path><path d="M0 489L21.5 487C43 485 86 481 128.8 481.2C171.7 481.3 214.3 485.7 257.2 478.5C300 471.3 343 452.7 385.8 452.8C428.7 453 471.3 472 514.2 468.5C557 465 600 439 642.8 434.8C685.7 430.7 728.3 448.3 771.2 461.5C814 474.7 857 483.3 878.5 487.7L900 492L900 601L878.5 601C857 601 814 601 771.2 601C728.3 601 685.7 601 642.8 601C600 601 557 601 514.2 601C471.3 601 428.7 601 385.8 601C343 601 300 601 257.2 601C214.3 601 171.7 601 128.8 601C86 601 43 601 21.5 601L0 601Z" fill="#f86f4c"></path><path d="M0 467L21.5 471.8C43 476.7 86 486.3 128.8 492.5C171.7 498.7 214.3 501.3 257.2 495.8C300 490.3 343 476.7 385.8 479.8C428.7 483 471.3 503 514.2 502.8C557 502.7 600 482.3 642.8 476.5C685.7 470.7 728.3 479.3 771.2 489C814 498.7 857 509.3 878.5 514.7L900 520L900 601L878.5 601C857 601 814 601 771.2 601C728.3 601 685.7 601 642.8 601C600 601 557 601 514.2 601C471.3 601 428.7 601 385.8 601C343 601 300 601 257.2 601C214.3 601 171.7 601 128.8 601C86 601 43 601 21.5 601L0 601Z" fill="#e5475a"></path><path d="M0 557L21.5 551.8C43 546.7 86 536.3 128.8 536.7C171.7 537 214.3 548 257.2 552C300 556 343 553 385.8 548.2C428.7 543.3 471.3 536.7 514.2 536.5C557 536.3 600 542.7 642.8 541.7C685.7 540.7 728.3 532.3 771.2 531.7C814 531 857 538 878.5 541.5L900 545L900 601L878.5 601C857 601 814 601 771.2 601C728.3 601 685.7 601 642.8 601C600 601 557 601 514.2 601C471.3 601 428.7 601 385.8 601C343 601 300 601 257.2 601C214.3 601 171.7 601 128.8 601C86 601 43 601 21.5 601L0 601Z" fill="#c62368"></path></svg>