<svg id="visual" viewBox="0 0 900 600" width="900" height="600" xmlns="http://www.w3.org/2000/svg" xmlns:xlink="http://www.w3.org/1999/xlink" version="1.1"><rect x="0" y="0" width="900" height="600" fill="#001220"></rect><path d="M0 387L21.5 382.5C43 378 86 369 128.8 352.2C171.7 335.3 214.3 310.7 257.2 311.2C300 311.7 343 337.3 385.8 342.7C428.7 348 471.3 333 514.2 334C557 335 600 352 642.8 357.5C685.7 363 728.3 357 771.2 358.3C814 359.7 857 368.3 878.5 372.7L900 377L900 601L878.5 601C857 601 814 601 771.2 601C728.3 601 685.7 601 642.8 601C600 601 557 601 514.2 601C471.3 601 428.7 601 385.8 601C343 601 300 601 257.2 601C214.3 601 171.7 601 128.8 601C86 601 43 601 21.5 601L0 601Z" fill="#ffc145"></path><path d="M0 359L21.5 352.3C43 345.7 86 332.3 128.8 331.3C171.7 330.3 214.3 341.7 257.2 359.3C300 377 343 401 385.8 395.8C428.7 390.7 471.3 356.3 514.2 340.7C557 325 600 328 642.8 339.8C685.7 351.7 728.3 372.3 771.2 387C814 401.7 857 410.3 878.5 414.7L900 419L900 601L878.5 601C857 601 814 601 771.2 601C728.3 601 685.7 601 642.8 601C600 601 557 601 514.2 601C471.3 601 428.7 601 385.8 601C343 601 300 601 257.2 601C214.3 601 171.7 601 128.8 601C86 601 43 601 21.5 601L0 601Z" fill="#ff9843"></path><path d="M0 465L21.5 450.3C43 435.7 86 406.3 128.8 392C171.7 377.7 214.3 378.3 257.2 384C300 389.7 343 400.3 385.8 415.8C428.7 431.3 471.3 451.7 514.2 462.2C557 472.7 600 473.3 642.8 460.7C685.7 448 728.3 422 771.2 408.7C814 395.3 857 394.7 878.5 394.3L900 394L900 601L878.5 601C857 601 814 601 771.2 601C728.3 601 685.7 601 642.8 601C600 601 557 601 514.2 601C471.3 601 428.7 601 385.8 601C343 601 300 601 257.2 601C214.3 601 171.7 601 128.8 601C86 601 43 601 21.5 601L0 601Z" fill="#f86f4c"></path><path d="M0 451L21.5 454.8C43 458.7 86 466.3 128.8 473C171.7 479.7 214.3 485.3 257.2 484.5C300 483.7 343 476.3 385.8 480.7C428.7 485 471.3 501 514.2 499.7C557 498.3 600 479.7 642.8 480.2C685.7 480.7 728.3 500.3 771.2 502.3C814 504.3 857 488.7 878.5 480.8L900 473L900 601L878.5 601C857 601 814 601 771.2 601C728.3 601 685.7 601 642.8 601C600 601 557 601 514.2 601C471.3 601 428.7 601 385.8 601C343 601 300 601 257.2 601C214.3 601 171.7 601 128.8 601C86 601 43 601 21.5 601L0 601Z" fill="#e5475a"></path><path d="M0 504L21.5 504.8C43 505.7 86 507.3 128.8 516.5C171.7 525.7 214.3 542.3 257.2 547.5C300 552.7 343 546.3 385.8 539.3C428.7 532.3 471.3 524.7 514.2 521.3C557 518 600 519 642.8 517.5C685.7 516 728.3 512 771.2 511.7C814 511.3 857 514.7 878.5 516.3L900 518L900 601L878.5 601C857 601 814 601 771.2 601C728.3 601 685.7 601 642.8 601C600 601 557 601 514.2 601C471.3 601 428.7 601 385.8 601C343 601 300 601 257.2 601C214.3 601 171.7 601 128.8 601C86 601 43 601 21.5 601L0 601Z" fill="#c62368"></path></svg>
